<svg xmlns="http://www.w3.org/2000/svg" viewBox="0 0 1345.04 1614.09">
  <defs>
    <linearGradient id="a" x1="376.03" x2="1030.31" y1="83.6" y2="1516.75" gradientUnits="userSpaceOnUse">
      <stop offset=".06" stop-color="#527996"/>
      <stop offset=".46" stop-color="#7a93a7"/>
      <stop offset=".66" stop-color="#978c93"/>
      <stop offset="1" stop-color="#d6b8c9"/>
    </linearGradient>
  </defs>
  <path d="M785.32 660.21c11.42-28.7 3.83-45.31-4.66-56.72-19.63-26.39-49.79-42.5-79.92-55.58-36.52-15.85-110.54-36.51-137.16-45.95-22.38-7.94-44.58-16.98-65.68-27.82-21.78-11.19-42.87-24.11-62.93-38.17-22.64-15.87-46.32-31.14-65.37-51.19-15.66-16.48-30.59-29.55-37.02-64.92-2.92-16.06-2.53-37.85-2.53-54.17-1.1-.46-2.51-1.35-3.62-1.81-4.45 4.48-9.82 10.32-14.05 15-9.39 10.4-19.48 20.33-27.59 31.67-8.57 11.99-15.61 19.42-18.76 40.01-2.88 18.77-29.79 31.58-35.89 34.53-9.12 4.42-14.35 14.6-16.54 24-1.3 5.57-4.96 18.89 0 51.33 1.03 6.76 4.46 18.98 6.2 27.22 3.79 17.91-6.99 52.89-9.3 59.94-6.2 18.95-23.88 59.12-40.48 79.15-13.87 16.73-28.42 33.07-44.14 48.05-13.02 12.4-28 22.81-42.5 33.58-11.96 8.88-24.42 17.02-36.81 25.28-8.01 5.34-7.23 14.18-9.12 21.21-4.36 38.7-18.32 87.43-16.42 90.55 2.68 4.41 7.92 10.33 11.33 15.06 9.2 12.76 18.64 26.45 21.12 46.74 1.41 11.59 2.66 18.57 3.73 24.5.8 4.48.46 5.05 10.45 6.2 11.04 1.71 20.83 1.5 32 1.92 24.73.92 24.66-2.56 27.83-1.23-.98 3.39-3.54 6.55-5.91 8.73-2.64 2.42-9.64 5.34-15.73 5.17-10.22-.29-38.99 3.11-59.27-5.94-4.67-2.08-7.9-4.11-9.15-9.75-3.87-17.38-7.55-31.93-9.84-40.92-2.63-10.33-12.36-25.62-19.81-34.79-4.25-5.23-8.8-8.39-7.58-14.97 2.97-16.05 8.75-41.75 11.02-57.89 2.09-14.86.01-21.71 1.44-36.66.54-5.7 1.79-11.33 2.57-17.01.9-6.61 5.4-9.39 10.91-12.28 8.63-4.54 17.12-9.69 24.75-15.73 21.16-16.76 44.03-31.34 62.04-52.11 19.56-22.55 45.03-53.51 58.32-80.3 3.47-6.99 15.57-33.87 18.26-48.92 6.35-35.48-1.15-79.42.14-115 .56-15.57 8.13-27.32 22.36-34.1 7.97-3.8 19.04-7.64 25.27-13.5 5.19-4.88 5.86-6.19 8.73-19.29 3.92-17.88 11.05-32.56 23.73-45.54 12.32-12.6 24.9-24.96 37.35-37.44 2.01-2.01 5.49-6.03 5.49-6.03s-2.43-3.62-3.87-5.64c-17.67-24.75-21.31-56.74-22.4-74.85-1.03-17.22-1.43-32.49-.52-44.96 1.18-16.19 3.83-32.62 7.29-48.52 2.37-10.86 4.7-19.38 9.42-29.51 3.53-7.58 9.52-17.07 11.71-19.98C323.19 18.93 341.89-.21 352.75 0c5.29.1 6.78 3.47 6.25 8.77-2.33 23.14 1.21 47.7 9.99 69.07 5.27 12.83 10.64 24.88 18.09 36.52 9.82 15.34 12.58 30.45 12.06 47.47l-2.36.82c-2.89-3.57-5.56-7.35-8.74-10.65-6.76-7.01-14.05-13.52-20.77-20.55-8.95-9.35-16.38-24.15-22.04-37.25-7.15-15.17-9.3-26.87-13.44-48.4-27.9 31.18-25.76 167.94-3.1 196.42 4 2.83 4.56 3.52 10.12-5.27 1.47-2.32 5.09-9.31 9.23-15.11 14.91-20.89 20.15-29.4 48.86-41.17 12.31-5.05 26.93-8.38 51.59-6.89 17.31 1.98 25.18 7.67 29.86 17.03-3.29-1.49-2.99-1.33-8.16-3.25s-8.19-3.1-13.81-3.67c-10.06-1.04-22.89 1.5-31.75 3.67-11.5 2.82-36.29 13.95-49.61 34.62-14.9 23.12-21.36 37.89-22.45 60.46-1.15 23.85 1.68 51.08 19.06 70.74 24.37 27.56 52.81 48.16 82.22 70.05 22.09 16.44 43.44 28.83 67.75 41.34s55.03 22.69 81.07 30.32c21.1 6.18 107.05 31.66 146.53 53.74 20.07 11.23 37.88 23.42 51.9 42.49 12.18 16.56 14.55 32.14 10.79 51.22-5.39 27.38-23.44 55.72-41.34 94.62-7.79 16.93-13.45 33.24-15.85 51.9-3.97 30.98 5.76 61.19 25.03 82.22 15.16 16.54 30.32 39.96 102.72 76.3 13.66 6.86 95.22 41.29 121.23 53.9 26.41 12.8 51.63 28.05 74.29 46.65 16.1 13.22 30.12 28.93 41.21 47.01 10.37 16.93 16.72 26.95 22.45 46.04 3.37 11.21 5.96 29.01 7.63 31.87 6.03-11.63 7.99-33.21 8.44-47.77.52-16.71-1.72-38.3-3.44-49.95-3.44-23.25-15.83-43.49-29.43-63.94-26.9-40.44-101.66-71.45-184.95-117.93-24.56-13.71-83.51-43.13-90.3-101.89-5.55-48 5.48-111.22 31.31-160.19 6.62-12.56 14.46-23.82 22.51-35.6 6.12-8.97 23.72-33.01 24.3-32.35 1.02 1.16.32 12.09-2.03 16.62-10.43 20.16-18.83 35.83-32.73 67.75-21.01 48.28-22.05 108.52-18.6 139.64 4.99 45.12 53.62 75.09 78.55 89.57 37.14 21.57 145.12 80.93 163.9 96.29 47.39 38.75 61.63 99.38 59.67 146.98-1.33 32.53-10.34 57.78-16.2 76.42-5.9 14.61-12.28 37.9-19.77 42.11-.4-3.54.25-12.9-.66-29.71-.94-17.34-6.43-53.74-29.51-98.07-18.29-35.13-57.53-65.51-75.98-76.93-25.17-15.58-52.82-27.22-79.62-39.37-32.03-14.52-64.84-27.36-96.6-42.47-28.34-13.48-71.02-45.95-80.87-56.26-14.17-14.82-26.78-30.15-34.74-49.93-9.26-23.01-9.49-42.78-6.66-66.91 2.2-18.71 16.09-51.45 28.83-74.83M455.8 216.67c-10.69-1.61-33.35 6.14-36.4 22.79-2.7 14.74 1.66 27.28 8.73 39.09 8.5 14.19 22.03 25.01 36.29 33.71 77.86 47.54 239.08 53.4 320.15 70.05 55.71 11.44 83.28 25.49 95.06 30.37 33.1 13.73 70.3 31.96 99.11 66.51 25.54 30.63 26.52 51.59 28.6 67.33 4.13 31.23-12.62 66.01-20.67 84.29-17.04 38.7-16.86 91.27-11.19 111.64 19.11 68.65 71.64 87.71 95.71 104.25 60.52 41.57 95.6 86.01 108.06 142.16 3.85 21.69 12.09 59.5 14.86 63.37 1.37 1.92 5.67 9.53 6.78 9.2 0-15.58 2.35-79.07-19.91-129.07-14.92-33.52-36.92-62.56-67.75-83.43-21.13-14.31-41.44-25.96-62.01-41.05-44.97-32.98-62.13-80.27-52.78-134.61 3.95-22.95 12.77-49.87 21.71-71.56 9.02-21.89 16.6-54.5.17-92.01-16.49-37.64-29.96-56.2-91.06-94.55-30.58-19.2-59.7-29.32-89.11-37.67-81.69-23.18-137.2-27.71-190.39-34.22-18.63-2.28-67.69-12.78-96.23-21.59-37.21-11.48-55.35-18.6-79.23-31.23-12.92-6.83-25.83-19.37-31.69-34.45-5.34-13.72-1.52-22.08 10.99-30.39 3.18-2.11 5.43-3.55 10.54-4.75-2.18-2.64-7.1-4.01-8.33-4.19ZM597.73 1569c-6.61-8.23-63.09-79.77-79.3-111.01-16.81-32.39-27.31-66.35-29.16-102.52-2.36-46.23 2.21-88.23 12.34-125.69 14.47-53.51 73.38-138.95 91.64-184.19 22.98-56.93 24.09-81.83 17.8-121.76-3.57-22.7-15.74-70.01-19.52-80.77-2.2 5.48-2.58 8.67-3.3 16.16-2.66 27.53 2.24 49.31 3.8 76.66 1.22 21.45 2.29 75.27-32.82 132.45-24.71 40.24-74.83 127.41-85.6 181.35-31.94 160.09 31.2 232.04 78.51 277.97 22.9 22.23 39.56 39.63 45.59 41.34ZM130.42 981.98c7.58 3.62 27.73 6.03 50.12 5.86 22.46-.17 36.36-6.55 53.22-18.43 5.29-3.73 29.17-26.31 34.44-34.8 5.17-8.33 10.82-11.56 13.34-31.31a8.88 8.88 0 0 1 4.14-6.43c7.73-4.78 21.68-12.3 46.61-20.65 20.15-6.75 48.92-17.41 77.64-30.13 15.44-7.1 17.79-11.55 47.73-9.73 19.01.86 45.7-1.94 64.45-5.1 29.41-9.4 49.99-20.25 68.88-39.36 10.91-11.04 13.39-27.35 21.32-42.11 13.51-25.16 20.68-35.66 20.68-47.31-7.59 12.63-24.39 26.16-37.02 50.5-6.99 13.47-11.33 25.06-41.82 45.73-11.57 6.84-33.49 16.65-46.51 20.67-14.37 4.44-34.11 5.92-49.66 2.95-11.74-2.25-25.27-2.54-36.43 1.12-25.77 8.46-79.69 33.31-88.23 36.58-65.28 25.03-62.07 13.09-81.13 54.2-13.91 30-54.6 55.35-66.14 56.9-21.02 2.82-46.16-1.9-70.92 2.45 5.81 4.44 10.83 6.27 15.29 8.4Zm604.64 348.6c4.97 1.1 7.12 2.35 10.85 1.06 12.35-4.3 14.08-1.38 19.93 4.06 22.69 21.09 43.46 18.13 64.82-.94 2.96-2.64 2.36-6.09 26.09-5.16 6.35.25 9.64-4.2 12.63-10.16 6.88-13.69 1.02-26.33-2.38-38.62-4.71-17-18.68-52.82-25.76-81.47-11.32-45.8-6.55-102.02 28.07-144.56 24.11-29.63 71.78-42.83 75.29-44.83 2.46-1.39 4.8-3.39 3.32-4.61-3.64-3-11.77-5.74-20.21-6.18-3.96 1.64-46.68 12.89-67.59 37.93-47.06 56.32-50.34 114.83-45.46 149.51 5.56 39.49 27.35 91.81 32.42 105.47 1.84 4.97 1.8 10.66 2.43 16.05.73 6.22-2.32 9.05-8.4 8.53-11.5-.97-20.2 3.6-28.03 11.95-7.01 7.47-16.93 8.19-25.89 3.4-3.89-2.07-7.64-4.5-11.16-7.15-9.47-7.14-28.9-6.36-38.79 2.26-.77.67-2.04 2.43-2.15 3.45ZM633.99 241.15c2.72-4.17 3.05-8.28 2.9-14.82-.44-18.57-5.04-36.96-9.89-54.83-5.03-18.53-13.8-36.82-22.21-54.04-15.73-32.2-40.93-52.94-68.56-74.24-17.7-13.64-36.45-25.04-55.29-37.21-10.67-6.89-28.76-6.01-29.93-.02-.55 2.82 1.57 5.88 3.28 8.24 10.1 13.91 15.98 22.79 19.94 41.56 4.41 20.92 6.9 46.9 8.16 68.19 1.28 21.55 3.93 42.66 10.58 63.09 4.15 12.76 10.48 24.66 21.05 33.71-2.96-12.9-6.51-25.49-10.2-38.04-5.41-18.4-5.13-68.89-5.99-84.4-1.01-18.1-2.58-36.96-9.47-56.5 18.26 6.89 37.31 24.02 47.71 32.56 18.22 14.95 36.67 31.06 47.93 51.56 20.16 36.71 35.38 76.01 42.67 120.53 3.32-1.05 6.14-3.52 7.33-5.34Zm92.46 1358.63c21.3 9.36 39.75 14.78 49.38 14.28 31.46-1.65 77.75-18.93 133.38-50.98 56.94-32.8 130.09-101.56 154.16-146.21 13.91-25.8 36.63-73.16 44.32-101.45 6.69-24.59 12.86-59.57 14.18-72.31.65-6.27-.17-16.19-4.54-20.13-1.51 2.54-3.04 6.17-3.73 8.84-5.94 23.03-5.68 30.3-15.33 63.19-6.58 22.45-24.5 64.21-34.11 83.95-13.09 26.89-33.94 62.88-55 83.99-23.94 28.63-65.2 64.04-81.59 75.57-6.85 4.82-37.47 25.09-65.45 39.79-27.14 14.26-64.27 21.5-71.83 21.24-40.13-1.38-66.66-10.39-142.07-56.77-.72-.44-15.97-10.52-19.62-10.52 44.79 39.96 78.47 59.01 97.84 67.52Zm340.36-494.84c-10.87-3.54-24.72-4.6-37.14-6.54-7.32-1.14-10.71 1.86-16.02 6.79-2.67 2.48-8.73 8.06-12.29 8.84-26.07 5.74-64.65 4.88-75.56-.46-7.25-2.58-16.08-7.54-22.67-5.58-12.88 3.83-20.1 6.87-31.87 13.68-3.27 1.89-12.47 6.91-11.47 10.33 1.22 4.17 8.72 4.83 17.05 2.8 8.28-1.98 17.1-6.76 25.77-8.6 7.48-1.58 6.09-1.44 18.16 10-19.31 1.59-18.25-2.34-15.51 6.25 2 6.26 18.62 9.34 25.51 10.22 63.47 8.1 75.55-2.13 85.15-6.07 13.81-9.6 15.54-17.04 14.67-22.86-1.03-6.95-4.55-13.95 15.16-13.95 11.02 0 17.4.46 25.55.46.25-.84-2.47-4.65-4.48-5.31Zm-185.85 317.77c-14.39 6.85-29.04 4.84-42.64-1.43-13.9-6.41-20.79-9.02-34.38-2.74-2.93 1.35-10.97 6.98-14.21 5.44-24.58-11.68-36.29-20.85-70.97-5.44-6.55 3.21-13.6 2.69-19.98-.65-5.67-2.97-10.38-6.04-16.61-7.46-6.07-1.38-9.18 2.46-6.93 7.27 10.57 8.87 13.71 10.75 25.37 16.23 1.76.83 3.75.99 5.63.48 10.28-2.78 28.27-4.98 41.34-5.13 12.07-.14 23.06 5.75 30.45 7.58 14.23 3.53 21.89 1.83 31.87-.95 11.01-3.07 21.28-4.18 32.15-1.53 12.71 3.1 29.04 3.19 37.47-2.13 4.08-2.58 9.76-5.96 8.86-13.71-2.3 1.42-5.52 3.27-7.41 4.17Zm-738.7-594.66c-9.48-1.34-14.43 3.1-13.91 9.32.4 4.71 3.62 10.25 8.27 10.77 14.5 1.61 28.85 1.29 36.69-6.55 10.94-10.94 8.1-37.38-2.58-55.12-5.2-8.64-18.89-30.26-32.32-36.98-7.61-3.81-14.37-4.94-15.75-2.91-1.23 1.8 1.79 7.17 5.3 13.53 5.83 10.59 7.05 10.74 12.63 20.41 3.85 6.66 13.78 17.71 14.12 36.43s-9.91 22.03-11.48 21.82c-3.89-2.7-2.34-6.99-.65-10.1a.43.43 0 0 0-.31-.63Zm718.84 632.26c-9.93 1.67-13.45 3.76-39.07 9.41-24.44 5.38-42.57 2.82-74.44-8.89-8.19-3.01-13.48-4.97-19.02-7.45-3.37-1.51-7.26.9-7.76 2.11-1.33 3.23 1.22 7.66 2.67 8.96 7.01 6.25 14.31 8.62 20.12 10.93 23.46 9.35 42.89 14.65 69.27 9.96 15.34-2.72 34.63-10.13 48.24-25.03ZM763.74 145.69c-2.63-20.88-5.48-41.73-8.65-62.53-1.15-7.52-6.63-13.05-12.89-13.57-6.59-.55-11.69 3.5-14.2 11.75-4.13 13.56-8.23 27.12-12.05 40.77-12.56 44.92-21.29 90.67-28.88 136.65-.66 3.98-1.72 7.97-.97 12.07 1.08 5.92 6.38 10.35 12.21 10.31 6.55-.05 11.56-4.89 12.77-12.66 4.55-29.26 9.82-58.38 16.18-87.3 2.92-13.27 6.23-26.46 9.36-39.68 1.12 1.11 1.53 2.12 1.65 3.16 2.25 20.77 6.15 41.29 9.44 61.9 3.32 20.82 9.75 40.88 14.09 61.45 1.49 7.04 7.2 9.96 13.57 11.3 5.22 1.1 9.41-1.16 12.5-5.49 25.3-35.47 53.14-68.92 81.65-101.82.97-1.12 1.68-2.61 3.41-3.05 0 .51.11 1-.02 1.4-8.71 28.14-15.42 56.81-22.66 85.34-3.64 14.35-8.44 28.35-12.59 42.55-2.67 9.16 4.54 17.52 13.63 16.07 5.76-.92 8.99-4.77 10.63-10.01 3.86-12.33 7.92-24.62 11.23-37.1 8.7-32.81 16.27-65.93 26.45-98.35 4.48-14.26 8.94-28.53 12.97-42.92 1.97-7.02-1.29-14.06-6.8-16.92-5.5-2.85-11.25-1.48-16.72 4.34-30.91 32.86-60.67 66.72-88.55 102.2-6.33 8.06-12.69 16.11-19.7 25-7.9-31.97-13.08-63.32-17.05-94.86Zm271.95 179.72c-2.35 6.33-9.73 9.59-17.19 7.31-6.55-2-13.08-4.13-19.47-6.59-3.39-1.31-5.43-.9-7.96 1.96-12.74 14.45-28.45 23.41-48.17 23.07-25.72-.45-44.54-15.64-50.03-40.87-5.36-24.63-2.42-48.07 14.95-67.61 14.98-16.85 34.27-24.03 56.51-19.49 22.47 4.6 36.8 19.39 44.54 40.6 2.77 7.58 2.66 15.62 1.52 22.65-.66 4.81-1.12 8.71-2.59 12.35-1.09 2.71-.03 3.94 2.53 4.74 4.76 1.48 9.46 3.15 14.17 4.77 1.03.35 2.06.72 3.04 1.2 6.96 3.41 10.33 10.02 8.15 15.92Zm-68.58-14.4c-16.02-14.83-19.14-41.62-7.12-59.51 1.82-2.7 1.5-3.62-1.7-4.01-11.59-1.4-21.48 2.06-30 9.95-14.74 13.65-14.88 41.66-8.63 54.17 4.06 8.1 10.45 13.01 19.99 14.06 10.27 1.6 19.14-2.24 27.24-8.79 2.57-2.08 3.08-3.2.21-5.87Zm17.12-19.63c.33-8.93 1.34-17.46-2.71-25.87-5.8 6.88-4.43 20.35 2.71 25.87Zm14.14 86.59c-2.18 5.35-1.41 10.54 2.74 14.41 7.29 6.8 13.03 14.88 19.63 22.23 23.73 26.46 51.34 50.46 76.49 75.59 1.42 1.42 3.04 2.65 4.67 3.83 6.22 4.47 12.48 3.93 17.62-1.44 4.72-4.92 5.36-12.57.56-17.83-6.43-7.04-12.52-14.4-19.62-20.86-22.32-20.33-42.81-39.99-62.94-62.48-1.75-1.96-2.05-3.4-.28-5.55 4.48-5.43 8.48-11.28 13.13-16.55 32.54-36.85 65.37-73.44 100.49-107.9 5.87-5.76 11.69-11.58 17.25-17.63 5.27-5.73 5.16-13.42.17-18.64-4.99-5.22-12.51-5.52-18.63-.63-1.83 1.46-3.46 3.17-5.13 4.82-26.58 26.34-52.64 53.17-77.67 81-16.49 18.34-33.72 36.02-48.56 55.78-2.03 2.71-3.75 5.21-7.2 3.69-5.82.05-10.72 3.22-12.72 8.13Zm342.44 286.9c-2.96 14.29-11.78 24.35-23.68 32.17-13.76 9.04-28.32 12.61-43.57 18.15-33.48 12.16-66.95 24.02-100.3 36.56-1.25.47-2.59.85-3.91.99-6.91.7-13.24-2.93-15.14-8.58-2.06-6.13.5-12.57 6.93-16.34 5.7-3.34 12.16-4.97 18.32-7.27 30.36-11.34 61.11-21.78 91.34-33.52 10.42-4.04 22.44-7.04 31.92-13.15 10.52-6.78 13.67-14.74 10.53-26.79-3.1-11.91-10.47-19.86-22.19-23.56-13.36-4.21-27.08-5.53-41.03-4.6-18.13 1.22-35.82 4.48-52.73 11.38-8.44 3.44-15.84 1.37-19.47-5.27-1.51-2.75-1.99-5.49-1.51-8.15-18.09-10.54-22.18-32.15-7.67-51.12 1.21-1.58 2.46-3.12 4.14-5.26-9.7-.04-18.64-.69-27.49-2.99-20.39-5.3-31.82-23.21-28.17-44.75.53-3.14 1.19-6.41 2.52-9.21 19.89-41.86 57.28-65.04 102.67-53.14 16.39 4.3 28.52 15.03 35.57 31.59 3.9 9.17 3.52 18.6 1.71 27.99-.59 3.07-.59 5.61.89 8.66 3.81 7.86.62 16.37-7.64 20.77-15.96 8.5-31 18.47-45.02 30.08-5.73 4.75-11.29 9.74-16.02 15.63-3.6 4.5-3.23 5.33 2.45 6.57 6.69 1.47 13.36 1.03 19.89-.27l-.79.86 51.6-23.3c9.15-4.01 14.37-4.59 22.25-5.32 6.69-.61 12.24 2.54 14.51 8.51 2.18 5.74.39 11.79-4.97 15.66-2.16 1.56-4.75 2.53-7.12 3.81-1.28.69-3.12.47-3.69 2.13 5.32 1.57 10.72 2.91 15.95 4.74 26.98 9.47 44.52 39.34 38.92 66.36Zm-142.66-140.08c7.46-1.23 15.91-4.96 24.73-7.39 1.4-.39 2.67-.91 3.63-2.17 10.48-13.69 5.6-29.95-10.64-35.14-2.42-.77-4.93-1.3-7.43-1.62-25.14-3.19-48.96 10.56-59.87 34.47-4.22 9.26-1.78 14.21 7.99 15.9 13.69 2.36 26.87-.35 41.58-4.04Zm116.68 344.98c-6.1 2.91-13.66.1-17.42-6.73-3.3-6-6.51-12.07-9.38-18.29-1.52-3.3-3.26-4.43-7.07-4.13-19.21 1.49-36.72-3.02-50.63-17.01-18.14-18.24-21.06-42.25-7.42-64.18 13.31-21.4 31.75-36.17 57.83-38.09 22.48-1.65 41.33 6.64 54.11 25.39 12.92 18.95 12.9 39.55 3.67 60.15-3.3 7.37-8.98 13.06-14.69 17.3-3.82 3-6.87 5.46-10.46 7.06-2.67 1.19-2.76 2.81-1.48 5.16 2.38 4.38 4.59 8.85 6.85 13.29.49.97.98 1.96 1.34 2.98 2.62 7.3.43 14.39-5.24 17.09Zm-39.17-58.11c-1.16-21.8 15.26-43.19 36.35-47.66 3.19-.68 3.6-1.56 1.57-4.06-7.34-9.07-16.85-13.49-28.45-13.76-20.09-.48-39.7 19.52-43.93 32.85-2.74 8.64-1.57 16.62 4.55 24.01 6.25 8.3 15.29 11.73 25.66 12.67 3.3.3 4.44-.15 4.24-4.06Zm25.96-2.16c6.46-6.18 13.12-11.59 16.08-20.45-8.95.9-17.36 11.52-16.08 20.45Z" style="fill:url(#a)"/>
</svg>
